<?xml version="1.0" encoding="utf-8"?>
<!-- Generator: Adobe Illustrator 19.2.1, SVG Export Plug-In . SVG Version: 6.00 Build 0)  -->
<svg version="1.1" id="Layer_1" xmlns="http://www.w3.org/2000/svg" xmlns:xlink="http://www.w3.org/1999/xlink" x="0px" y="0px"
	 viewBox="0 0 81.1 87.3" style="enable-background:new 0 0 81.1 87.3;" xml:space="preserve">
<style type="text/css">
	.st0{fill:#92C541;}
	.st1{fill:#404238;}
	.st2{fill:#FFFFFF;}
</style>
<polygon class="st0" points="8,25 41,5.8 74.2,24.7 74.3,62.9 41.3,82.2 8.2,63.2 "/>
<path id="path22" class="st1" d="M51.5,41.9c-0.1,0-0.1,0-0.2,0c-0.1,0.1-0.2,0.2-0.2,0.3V50c0,0.1,0,0.1-0.1,0.2
	c-0.1,0-0.1,0-0.2,0l-1.3-0.7c-0.2-0.1-0.4-0.1-0.6,0l-5,2.9c-0.2,0.1-0.3,0.3-0.3,0.5v5.8c0,0.2,0.1,0.4,0.3,0.5l5,2.9
	c0.2,0.1,0.4,0.1,0.6,0l5-2.9c0.2-0.1,0.3-0.3,0.3-0.5V44.2c0-0.2-0.1-0.4-0.3-0.5l-3-1.7C51.6,41.9,51.6,41.9,51.5,41.9L51.5,41.9z
	 M19.1,49.2c-0.1,0-0.2,0-0.3,0.1l-5,2.9c-0.2,0.1-0.3,0.3-0.3,0.5l0,7.8c0,0.1,0.1,0.2,0.2,0.3c0.1,0.1,0.2,0.1,0.3,0l3-1.7
	c0.2-0.1,0.3-0.3,0.3-0.5v-3.6c0-0.2,0.1-0.4,0.3-0.5l1.3-0.7c0.1-0.1,0.2-0.1,0.3-0.1c0.1,0,0.2,0,0.3,0.1l1.3,0.7
	c0.2,0.1,0.3,0.3,0.3,0.5v3.6c0,0.2,0.1,0.4,0.3,0.5l3,1.7c0.1,0.1,0.2,0.1,0.3,0c0.1-0.1,0.2-0.2,0.2-0.3l0-7.8
	c0-0.2-0.1-0.4-0.3-0.5l-5-2.9C19.3,49.2,19.2,49.2,19.1,49.2L19.1,49.2L19.1,49.2z M64.4,49.3c-0.1,0-0.2,0-0.3,0.1l-5,2.9
	c-0.2,0.1-0.3,0.3-0.3,0.5v5.8c0,0.2,0.1,0.4,0.3,0.5l5,2.9c0.2,0.1,0.4,0.1,0.6,0l3-1.7c0.1-0.1,0.2-0.2,0.2-0.3
	c0-0.1-0.1-0.2-0.2-0.3l-5.1-2.9c-0.1-0.1-0.2-0.2-0.2-0.3v-1.8c0-0.1,0.1-0.2,0.2-0.3l1.6-0.9c0.1-0.1,0.2-0.1,0.3,0l1.6,0.9
	c0.1,0.1,0.2,0.2,0.2,0.3v1.4c0,0.1,0.1,0.2,0.2,0.3c0.1,0.1,0.2,0.1,0.3,0l3-1.8c0.2-0.1,0.3-0.3,0.3-0.5v-1.4
	c0-0.2-0.1-0.4-0.3-0.5l-5-2.9C64.6,49.3,64.5,49.3,64.4,49.3L64.4,49.3z M49.3,53.6C49.3,53.6,49.4,53.6,49.3,53.6l1.8,1
	c0,0,0.1,0.1,0.1,0.1v2c0,0.1,0,0.1-0.1,0.1l-1.7,1c0,0-0.1,0-0.2,0l-1.7-1c0,0-0.1-0.1-0.1-0.1v-2c0-0.1,0-0.1,0.1-0.1L49.3,53.6
	C49.3,53.6,49.3,53.6,49.3,53.6L49.3,53.6z"/>
<path class="st2" d="M34.2,49.2c-0.1,0-0.2,0-0.3,0.1l-5,2.9c-0.2,0.1-0.3,0.3-0.3,0.5v5.8c0,0.2,0.1,0.4,0.3,0.5l5,2.9
	c0.2,0.1,0.4,0.1,0.6,0l5-2.9c0.2-0.1,0.3-0.3,0.3-0.5v-5.8c0-0.2-0.1-0.4-0.3-0.5l-5-2.9C34.4,49.3,34.3,49.2,34.2,49.2z"/>
<path class="st2" d="M64.4,54.4C64.4,54.4,64.3,54.4,64.4,54.4l-1,0.6c0,0-0.1,0.1-0.1,0.1v1.1c0,0,0,0.1,0.1,0.1l1,0.6
	c0,0,0.1,0,0.1,0l1-0.6c0,0,0.1-0.1,0.1-0.1v-1.1c0,0,0-0.1-0.1-0.1L64.4,54.4C64.4,54.4,64.4,54.4,64.4,54.4z"/>
<path class="st2" d="M41.7,20.7c-0.3,0-0.6,0.1-0.8,0.2l-7.7,4.5c-0.5,0.3-0.8,0.8-0.8,1.4v8.9c0,0.6,0.3,1.1,0.8,1.4l2,1.2
	c1,0.5,1.3,0.5,1.8,0.5c1.5,0,2.3-0.9,2.3-2.4v-8.8c0-0.1-0.1-0.2-0.2-0.2h-1c-0.1,0-0.2,0.1-0.2,0.2v8.8c0,0.7-0.7,1.4-1.9,0.8
	l-2.1-1.2c-0.1,0-0.1-0.1-0.1-0.2v-8.9c0-0.1,0.1-0.2,0.1-0.2l7.7-4.5c0.1,0,0.2,0,0.2,0l7.7,4.5c0.1,0,0.1,0.1,0.1,0.2v8.9
	c0,0.1,0,0.2-0.1,0.2l-7.7,4.5c-0.1,0-0.2,0-0.2,0l-2-1.2c-0.1,0-0.1,0-0.2,0c-0.5,0.3-0.7,0.3-1.2,0.5c-0.1,0-0.3,0.1,0.1,0.3
	l2.6,1.5c0.2,0.1,0.5,0.2,0.8,0.2c0.3,0,0.6-0.1,0.8-0.2l7.7-4.5c0.5-0.3,0.8-0.8,0.8-1.4v-8.9c0-0.6-0.3-1.1-0.8-1.4l-7.7-4.5
	C42.3,20.7,42,20.7,41.7,20.7L41.7,20.7z"/>
<polygon class="st2" points="53.2,20.9 53.2,21.1 53.8,21.1 53.8,22.8 54.1,22.8 54.1,21.1 54.7,21.1 54.7,20.9 "/>
<path class="st2" d="M55,20.9v1.9h0.2v-1.1c0,0,0-0.1,0-0.2c0-0.1,0-0.2,0-0.2v0l0.5,1.6H56l0.6-1.6c0,0.1,0,0.2,0,0.3
	c0,0.1,0,0.2,0,0.2v1.1h0.2v-1.9h-0.4l-0.6,1.6l-0.5-1.6L55,20.9L55,20.9z"/>
<path class="st2" d="M43.8,27c-2.2,0-3.5,0.9-3.5,2.5c0,1.7,1.3,2.2,3.4,2.4c2.5,0.2,2.7,0.6,2.7,1.1c0,0.9-0.7,1.2-2.3,1.2
	c-2,0-2.5-0.5-2.6-1.5c0-0.1-0.1-0.2-0.2-0.2h-1c-0.1,0-0.2,0.1-0.2,0.2c0,1.3,0.7,2.8,4.1,2.8c2.4,0,3.9-1,3.9-2.6
	c0-1.7-1.1-2.1-3.5-2.4c-2.4-0.3-2.6-0.5-2.6-1c0-0.5,0.2-1.1,2-1.1c1.6,0,2.2,0.3,2.4,1.4c0,0.1,0.1,0.2,0.2,0.2h1
	c0.1,0,0.1,0,0.2-0.1c0,0,0.1-0.1,0.1-0.2C47.5,27.9,46.2,27,43.8,27L43.8,27z"/>
</svg>
