<?xml version="1.0" encoding="iso-8859-1"?>
<!-- Generator: Adobe Illustrator 19.0.0, SVG Export Plug-In . SVG Version: 6.00 Build 0)  -->
<svg version="1.1" id="Capa_1" xmlns="http://www.w3.org/2000/svg" xmlns:xlink="http://www.w3.org/1999/xlink" x="0px" y="0px"
	 viewBox="0 0 400 400" style="enable-background:new 0 0 400 400;" xml:space="preserve">
<g id="XMLID_984_">
	<path id="XMLID_985_" style="fill:#ACABB1;" d="M200,295h200V135H200V295z M229.999,165h140v30h-140V165z M229.999,225h140v30h-140
		V225z"/>
	<path id="XMLID_989_" style="fill:#CDCDD0;" d="M0,135v160h200V135H0z M170,255H30v-30v-30v-30h90l25,30l25,30V255z"/>
	<rect id="XMLID_992_" y="105" style="fill:#FF9811;" width="200" height="30"/>
	<rect id="XMLID_993_" x="200" y="105" style="fill:#FF5023;" width="200" height="30"/>
	<rect id="XMLID_994_" x="229.999" y="165" style="fill:#FFFFFF;" width="140" height="30"/>
	<rect id="XMLID_995_" x="229.999" y="225" style="fill:#FFFFFF;" width="140" height="30"/>
	<polygon id="XMLID_996_" style="fill:#FFFFFF;" points="120,195 145,195 120,165 30,165 30,195 60,195 90,195 90,225 60,225 
		30,225 30,255 170,255 170,225 120,225 	"/>
	<polygon id="XMLID_997_" style="fill:#ACABB1;" points="120,195 120,225 170,225 145,195 	"/>
	<rect id="XMLID_998_" x="60" y="195" style="fill:#CDCDD0;" width="30" height="30"/>
	<rect id="XMLID_999_" x="30" y="195" style="fill:#ACABB1;" width="30" height="30"/>
</g>
<g>
</g>
<g>
</g>
<g>
</g>
<g>
</g>
<g>
</g>
<g>
</g>
<g>
</g>
<g>
</g>
<g>
</g>
<g>
</g>
<g>
</g>
<g>
</g>
<g>
</g>
<g>
</g>
<g>
</g>
</svg>
